<?xml version="1.0" encoding="iso-8859-1"?>
<!-- Generator: Adobe Illustrator 19.0.0, SVG Export Plug-In . SVG Version: 6.00 Build 0)  -->
<svg version="1.1" id="Layer_1" xmlns="http://www.w3.org/2000/svg" xmlns:xlink="http://www.w3.org/1999/xlink" x="0px" y="0px"
	 viewBox="0 0 500 650" style="enable-background:new 0 0 511.999 511.999;" xml:space="preserve" stroke="#fff">
<path style="fill:#88420E;" d="M440.509,222.72c0,0-0.084,0.026-0.28,0.084c-12.389,3.541-26.818,4.139-42.267-1.18
	c-21.201-7.299-41.425-2.954-57.49,4.271c-22.521-19.149-52.604-31.559-84.472-31.559c-31.976,0-61.814,12.345-84.36,31.605v0.004
	c-16.084-7.255-36.353-11.637-57.603-4.322c-15.449,5.319-29.878,4.721-42.267,1.18c-0.196-0.057-0.279-0.084-0.279-0.084
	c-5.488,91.925,78.223,92.527,78.227,92.527c1.296,27.055,5.356,69.227,18.043,81.913c23.998,23.998,46.335,27.504,46.335,70.333
	c0,26.951,41.905,31.936,41.905,31.936c0.001,0,41.905-4.986,41.905-31.936c0-42.828,22.337-46.335,46.335-70.333
	c12.686-12.686,16.747-54.858,18.042-81.913C362.285,315.247,445.996,314.645,440.509,222.72z"/>
<path  style="fill:#fff;" d="M485.49,184.383c-5.162-2.581-11.438-0.488-14.019,4.673c-4.066,8.131-33.061,35.444-70.108,22.689
	c-0.113-0.039-0.227-0.073-0.34-0.112c37.666-10.331,66.036-33.642,84.425-69.437c16.635-32.381,25.319-74.707,26.549-129.394
	c0.13-5.77-4.442-10.551-10.212-10.681c-5.74-0.124-10.551,4.442-10.681,10.212c-1.157,51.454-9.087,90.81-24.245,120.315
	c-8.638,16.813-19.554,30.211-32.932,40.336c1.87-3.25,3.607-6.717,5.165-10.425c11.269-26.811,6.899-66.754-3.806-122.513
	c-1.089-5.668-6.57-9.378-12.232-8.292c-5.668,1.089-9.38,6.564-8.291,12.232c7.813,40.693,15.291,86.145,5.064,110.475
	c-5.002,11.899-12.344,20.688-19.892,27.115c7.884-16.332,10.538-34.985,6.503-53.034c-1.259-5.632-6.844-9.174-12.476-7.918
	c-5.632,1.259-9.177,6.845-7.918,12.476c5.221,23.357-4.932,54.698-34.439,69.408c-5.207,2.596-9.91,5.147-14.181,7.626
	c-23.628-16.992-52.127-26.246-81.424-26.246c-29.298,0-57.796,9.254-81.425,26.246c-4.272-2.478-8.975-5.029-14.182-7.626
	c-29.507-14.71-39.66-46.051-34.439-69.408c1.259-5.632-2.286-11.218-7.918-12.476c-5.63-1.257-11.218,2.287-12.476,7.918
	c-4.034,18.049-1.38,36.702,6.502,53.032c-7.547-6.425-14.889-15.213-19.891-27.112c-10.227-24.33-2.749-69.782,5.064-110.475
	c1.088-5.668-2.625-11.144-8.292-12.232c-5.665-1.086-11.144,2.624-12.232,8.292c-10.705,55.758-15.075,95.702-3.806,122.513
	c1.559,3.707,3.295,7.174,5.165,10.424c-13.378-10.126-24.294-23.523-32.932-40.336C29.982,103.142,22.051,63.787,20.895,12.333
	c-0.13-5.769-4.911-10.335-10.681-10.212C4.445,2.251-0.127,7.033,0.003,12.802c1.229,54.687,9.913,97.013,26.548,129.395
	c18.388,35.794,46.758,59.105,84.425,69.437c-0.113,0.039-0.227,0.073-0.34,0.112c-37.049,12.756-66.043-14.558-70.108-22.689
	c-2.581-5.162-8.857-7.255-14.018-4.673c-5.162,2.581-7.254,8.858-4.673,14.019c4.626,9.25,18.908,23.635,38.976,31.668
	c-0.22,27.897,7.541,50.488,23.175,67.204c18.277,19.541,42.462,25.642,55.804,27.55c0.279,4.268,0.627,8.754,1.06,13.338
	c3.288,34.824,9.675,56.539,19.523,66.388c6.434,6.433,12.735,11.472,18.294,15.916c15.578,12.455,24.98,19.973,24.98,47.028
	c0,15.257,9.656,27.912,27.188,35.637c11.769,5.185,23.439,6.616,23.93,6.676c0.41,0.048,0.822,0.073,1.235,0.073
	c1.169,0,13.082-1.425,25.166-6.748c17.532-7.724,27.188-20.381,27.188-35.637c0-27.054,9.403-34.573,24.98-47.028
	c5.559-4.445,11.86-9.482,18.293-15.916c9.848-9.848,16.235-31.563,19.523-66.388c0.433-4.584,0.781-9.07,1.06-13.338
	c13.342-1.908,37.526-8.009,55.804-27.55c15.633-16.715,23.395-39.307,23.175-67.204c20.068-8.034,34.351-22.418,38.976-31.668
	C492.743,193.241,490.651,186.964,485.49,184.383z M412.882,282.856c-12.344,13.285-28.926,18.532-39.705,20.601
	c0.181-7.029,0.16-11.549,0.158-11.953c-0.034-5.749-4.706-10.386-10.448-10.386c-0.022,0-0.043,0-0.064,0
	c-5.771,0.034-10.421,4.741-10.386,10.512c0.001,0.211,0.1,21.354-2.093,44.567c-3.878,41.069-11.309,51.389-13.495,53.574
	c-5.613,5.614-11.181,10.066-16.567,14.37c-16.882,13.499-32.829,26.248-32.829,63.35c0,15.106-25.424,20.34-31.447,21.365
	c-5.944-1.029-31.464-6.347-31.464-21.365c0-37.102-15.946-49.852-32.829-63.35c-5.385-4.306-10.954-8.757-16.567-14.372
	c-2.181-2.18-9.596-12.476-13.479-53.416c-2.203-23.223-2.109-44.515-2.108-44.727c0.032-5.77-4.617-10.475-10.388-10.509
	c-0.021,0-0.042,0-0.063,0c-5.742,0-10.413,4.637-10.448,10.386c-0.002,0.403-0.023,4.923,0.158,11.952
	c-10.788-2.07-27.364-7.318-39.705-20.6c-10.817-11.641-16.622-27.555-17.347-47.399c11.015,1.308,23.038,0.394,35.668-3.953
	c38.968-13.415,75.124,19.399,80.287,24.364c10.491,13.561,12.986,25.209,13.072,25.625c0.942,5.012,5.325,8.518,10.257,8.518
	c0.621,0,1.25-0.055,1.882-0.17c5.678-1.032,9.444-6.472,8.411-12.15c-0.259-1.424-3.924-19.968-21.197-39.742
	c-1.461-1.793-3.969-4.589-7.856-8.116c-2.634-2.464-5.493-4.913-8.61-7.317c18.623-11.505,40.195-17.731,62.316-17.731
	c22.119,0,43.691,6.225,62.316,17.731c-3.118,2.405-5.978,4.856-8.612,7.321c-3.885,3.523-6.391,6.318-7.851,8.112
	c-17.275,19.774-20.939,38.318-21.199,39.744c-1.031,5.678,2.726,11.154,8.404,12.187c0.636,0.116,1.27,0.172,1.894,0.172
	c4.945,0,9.332-3.505,10.248-8.546c0.024-0.123,2.447-11.899,13.075-25.638c5.163-4.967,41.318-37.776,80.286-24.363
	c9.177,3.159,18.028,4.508,26.41,4.508c3.158-0.001,6.243-0.2,9.257-0.559C429.504,255.299,423.698,271.215,412.882,282.856z"/>
<path d="M256,212.39c-12.815,0-25.518,1.744-37.759,5.182c-5.556,1.56-8.794,7.329-7.234,12.886
	c1.295,4.611,5.489,7.626,10.054,7.626c0.935,0,1.887-0.126,2.832-0.392c10.402-2.922,21.204-4.402,32.109-4.402
	c5.771,0,10.449-4.678,10.449-10.449C266.449,217.068,261.771,212.39,256,212.39z"/>
<path d="M288.11,237.692c0.945,0.265,1.894,0.392,2.83,0.392c4.565,0,8.759-3.017,10.054-7.628
	c1.559-5.557-1.68-11.325-7.237-12.884c-1.675-0.47-3.376-0.913-5.056-1.319c-5.615-1.356-11.255,2.1-12.606,7.71
	c-1.351,5.611,2.1,11.255,7.71,12.606C285.236,236.914,286.684,237.291,288.11,237.692z"/>
<g>
</g>
<g>
</g>
<g>
</g>
<g>
</g>
<g>
</g>
<g>
</g>
<g>
</g>
<g>
</g>
<g>
</g>
<g>
</g>
<g>
</g>
<g>
</g>
<g>
</g>
<g>
</g>
<g>
</g>
</svg>
