<?xml version="1.0" encoding="utf-8"?>
<!-- Generator: Adobe Illustrator 15.0.0, SVG Export Plug-In . SVG Version: 6.00 Build 0)  -->
<!DOCTYPE svg PUBLIC "-//W3C//DTD SVG 1.1//EN" "http://www.w3.org/Graphics/SVG/1.1/DTD/svg11.dtd">
<svg version="1.1" id="Layer_1" xmlns="http://www.w3.org/2000/svg" xmlns:xlink="http://www.w3.org/1999/xlink" x="0px" y="0px"
	 width="500px" height="350px" viewBox="0 0 500 350" enable-background="new 0 0 500 350" xml:space="preserve">
<path fill="#fff" d="M495.863,84.212c-1.181-0.733-11.574-1.122-18.687-0.718c-11.328,0.784-22.272,2.282-27.412,3.64
	c-7.967,2.279-18.942,8.478-28.155,16.023c-2.564,2.117-5.531,4.184-8.468,5.982c-0.063,0.046-0.12,0.098-0.19,0.14
	c-0.131,0.073-0.262,0.142-0.394,0.213c-0.618,0.374-1.241,0.742-1.854,1.087c-0.078,0.002-0.154,0.012-0.232,0.014
	c-3.225,1.592-6.594,2.812-10.008,4.001c-4.586,1.601-9.084,4.028-13.871,4.972c-4.791,0.946-9.613,1.114-14.447,1.102
	c-17.18,2.432-65.28,3.743-79.271,2.055c-0.54,0.136-1.12,0.072-1.661-0.246c-1.232-0.223-1.992-0.486-2.168-0.792
	c-0.189-0.282-0.775-0.592-1.596-0.887c-0.141-0.117-0.287-0.232-0.447-0.345c-0.553-0.448-7.053-2.711-7.77-2.735
	c-0.342-0.072-9.039-1.731-13.223-2.156l-8.966-0.249c-0.235-0.006-0.455-0.049-0.662-0.111c-0.481,0.205-22.601,0.967-22.87,0.96
	c-4.983-0.136-14.543,3.653-14.603,3.701c-0.146,0.241-0.537,0.876-0.652,0.94c-0.191,0.022-1.615,0.916-2.238,1.264
	c-0.464,0.26-0.916,0.345-1.336,0.319c-5.455,1.001-23.38,1.065-52.21,0.184c-28.089-0.779-36.878-1.323-44.636-2.94
	c-16.016-3.245-27.785-8.175-33.823-14.044C75.834,97.554,60.159,89.215,48.817,87c-10.149-1.983-40.312-3.721-39.452-2.297
	c1.338,2.239,6.183,4.274,16.024,6.547c19.083,4.432,22.33,6.422,53.529,32.1c18.682,15.324,24.388,18.784,37.874,23.06
	c10.213,3.286,30.809,7.358,38.502,7.673c9.095,0.355,13.262,1.567,13.498,3.876c0.153,1.703-0.669,2.482-3.702,3.597
	c-5.761,2.143-9.661,5.635-12.517,11.26c-2.966,5.92-2.452,9.036,1.954,12.459c2.053,1.758,4.935,2.438,13.417,3.175
	c2.906,0.327,6.004,0.685,8.674,1.021c5.083-0.035,10.158-0.355,15.241-0.418c3.603-1.305,5.994-1.059,6.66,0.748
	c0.181,0.596,1.358,2.736,2.959,5.432c0.161,0.516,0.299,1.033,0.452,1.549c3.46,6.779,5.346,14.275,6.866,21.699
	c0.093,0.461,0.153,0.924,0.196,1.387c3.222,7.104,6.783,28.41,6.794,28.742c0.487,1.756,0.852,3.539,1.036,5.396
	c0.516,2.668,0.364,5.138-0.313,7.356c-0.004,0.021-0.007,0.047-0.011,0.07c-0.007,0.012-0.014,0.021-0.021,0.031
	c-0.507,1.618-1.297,3.102-2.315,4.426c-0.866,2.272-1.34,4.693-1.307,7.151c0.019,1.41,0.182,2.772,0.474,4.081
	c0.086,1.798,0.52,3.54,1.202,5.216c0.008,0.054,0.007,0.104,0.018,0.157c0.446,2.293,1.828,4.344,3.501,5.938
	c2.571,3.692,6.569,5.771,11.169,5.51c0.04,0,0.077-0.014,0.116-0.018c0.027,0.002,20.847,0.227,21.665,0.227
	c5.715,0,11.43,0.023,17.145,0.059c1.156-0.391,2.326-0.72,3.515-0.968c0.67-0.482,1.299-1.049,1.921-1.735
	c5.021-3.816,8.305-10.007,8.219-16.414c-0.035-2.68-0.6-5.179-1.57-7.449c-0.715-1.084-1.27-2.242-1.676-3.443
	c-0.09-0.244-0.168-0.495-0.234-0.749c-0.02-0.073-0.041-0.147-0.06-0.22c-0.021-0.08-0.04-0.158-0.056-0.239
	c-0.348-1.421-0.496-2.899-0.419-4.406c-1.526-7.478-0.399-15.88,3.196-22.942c2.908-8.968,6.972-17.396,10.85-25.926
	c0.104-0.311,0.21-0.63,0.297-0.912c0.998-3.576,3.564-9.404,5.764-13.047l3.789-6.695l3.477,0.896
	c8.251,1.933,34.605,0.263,38.581-2.429c5.512-3.85,6.18-9.936,1.771-16.856c-2.205-3.463-4.84-5.837-8.584-7.941
	c-2.958-1.583-5.509-3.354-5.698-3.761c-0.271-1.008,5.474-2.548,13.405-3.629c15.566-2.169,19.285-2.768,21.605-3.502
	c1.414-0.462,4.032-1.09,5.94-1.335c4.019-0.59,14.103-3.51,19.265-5.668c20.641-8.431,29.002-14.001,40.672-27.181
	c4.332-4.781,8.645-8.764,9.545-8.738c0.047,0.001,0.104-0.008,0.162-0.018c0.291-0.33,0.582-0.667,0.897-0.972
	c0.277-0.27,0.613-0.447,0.967-0.555c2.285-1.957,4.781-3.446,7.425-4.648c8.387-5.011,19.268-9.306,27.021-10.302
	c8.133-1.075,15.299-3.376,17.058-5.428C496.428,85.53,496.648,84.734,495.863,84.212z"/>
</svg>
